<svg xmlns="http://www.w3.org/2000/svg" viewBox="0 0 100 100">
  <circle cx="50" cy="50" r="50" fill="#9B0A1C"/>
  <!-- The Little Mermaid silhouette -->
  <!-- Rock base -->
  <ellipse cx="50" cy="80" rx="22" ry="6" fill="white"/>
  <!-- Tail (fish tail) -->
  <path d="M42,74 Q38,68 34,64 Q30,72 28,78 Q36,76 42,74Z" fill="white"/>
  <path d="M58,74 Q62,68 66,64 Q70,72 72,78 Q64,76 58,74Z" fill="white"/>
  <!-- Mermaid body -->
  <path d="M42,74 Q40,60 44,50 Q50,46 56,50 Q60,60 58,74Z" fill="white"/>
  <!-- Arms -->
  <path d="M44,56 Q36,52 32,56 Q36,60 44,60" fill="white"/>
  <path d="M56,56 Q64,52 68,56 Q64,60 56,60" fill="white"/>
  <!-- Head -->
  <ellipse cx="50" cy="42" rx="8" ry="9" fill="white"/>
  <!-- Hair flowing -->
  <path d="M42,40 Q36,36 34,28 Q40,34 46,38" fill="white"/>
  <path d="M56,38 Q62,32 64,24 Q60,30 54,36" fill="white"/>
</svg>
