<svg viewBox="0 0 100 100" xmlns="http://www.w3.org/2000/svg">
  <circle cx="50" cy="50" r="50" fill="#1E6B52"/>
  <g fill="white">
    <polygon points="50,13 45,27 55,27"/>
    <rect x="40" y="26" width="20" height="13" rx="1"/>
    <circle cx="50" cy="32" r="5" fill="#1E6B52"/>
    <line x1="50" y1="32" x2="50" y2="28.5" stroke="white" stroke-width="1.5" stroke-linecap="round"/>
    <line x1="50" y1="32" x2="53.5" y2="32" stroke="white" stroke-width="1.5" stroke-linecap="round"/>
    <rect x="43" y="39" width="14" height="32" rx="1"/>
    <rect x="45" y="44" width="4" height="6" rx="1" fill="#1E6B52"/>
    <rect x="51" y="44" width="4" height="6" rx="1" fill="#1E6B52"/>
    <rect x="45" y="56" width="4" height="6" rx="1" fill="#1E6B52"/>
    <rect x="51" y="56" width="4" height="6" rx="1" fill="#1E6B52"/>
    <rect x="38" y="71" width="24" height="11" rx="1"/>
    <rect x="34" y="82" width="32" height="3" rx="1.5"/>
  </g>
</svg>
