<svg viewBox="0 0 100 100" xmlns="http://www.w3.org/2000/svg">
  <circle cx="50" cy="50" r="50" fill="#C97A20"/>
  <g fill="white">
    <rect x="22" y="48" width="56" height="34" rx="2"/>
    <rect x="28" y="37" width="44" height="13" rx="2"/>
    <rect x="59" y="33" width="13" height="17" rx="1" fill="#C97A20"/>
    <rect x="26" y="63" width="6" height="11" rx="3" fill="#C97A20"/>
    <rect x="36" y="63" width="6" height="11" rx="3" fill="#C97A20"/>
    <rect x="46" y="63" width="6" height="11" rx="3" fill="#C97A20"/>
    <rect x="56" y="63" width="6" height="11" rx="3" fill="#C97A20"/>
    <rect x="66" y="63" width="6" height="11" rx="3" fill="#C97A20"/>
    <rect x="26" y="51" width="6" height="10" rx="3" fill="#C97A20"/>
    <rect x="36" y="51" width="6" height="10" rx="3" fill="#C97A20"/>
    <rect x="46" y="51" width="6" height="10" rx="3" fill="#C97A20"/>
    <rect x="56" y="51" width="6" height="10" rx="3" fill="#C97A20"/>
    <rect x="66" y="51" width="6" height="10" rx="3" fill="#C97A20"/>
    <rect x="30" y="39" width="6" height="9" rx="3" fill="#C97A20"/>
    <rect x="40" y="39" width="6" height="9" rx="3" fill="#C97A20"/>
    <rect x="50" y="39" width="6" height="9" rx="3" fill="#C97A20"/>
    <rect x="20" y="82" width="60" height="3" rx="1.5"/>
  </g>
</svg>
